<svg xmlns="http://www.w3.org/2000/svg" xmlns:xlink="http://www.w3.org/1999/xlink" width="500" zoomAndPan="magnify" viewBox="0 0 375 139.500001" height="186" preserveAspectRatio="xMidYMid meet" version="1.0"><defs><g/><clipPath id="2b4c23bddd"><path d="M 0.667969 0 L 374.328125 0 L 374.328125 139 L 0.667969 139 Z M 0.667969 0 " clip-rule="nonzero"/></clipPath></defs><g clip-path="url(#2b4c23bddd)"><path fill="#ffffff" d="M 0.667969 0 L 374.332031 0 L 374.332031 139 L 0.667969 139 Z M 0.667969 0 " fill-opacity="1" fill-rule="nonzero"/><path fill="#ffffff" d="M 0.667969 0 L 374.332031 0 L 374.332031 139 L 0.667969 139 Z M 0.667969 0 " fill-opacity="1" fill-rule="nonzero"/></g><path fill="#007bff" d="M 44.972656 105.234375 C 64.144531 96.976562 97.273438 99.253906 114.738281 110.644531 C 121.101562 102.765625 118.917969 83.78125 111.609375 81.597656 C 116.636719 62.328125 106.578125 21.132812 130.972656 19.800781 C 140.75 30.246094 146.824219 7.082031 131.257812 12.683594 C 99.082031 15.78125 110.296875 55.832031 102.78125 79.605469 C 75.820312 73.71875 30.636719 86.628906 39.84375 93.84375 C 66.613281 86.628906 99.648438 77.992188 111.605469 102.671875 C 98.316406 89.382812 49.148438 91.753906 44.96875 105.234375 Z M 44.972656 105.234375 " fill-opacity="1" fill-rule="nonzero"/><path fill="#007bff" d="M 46.964844 80.746094 C 25.605469 62.804688 -22.566406 10.519531 104.773438 36.035156 C 11.082031 30.910156 23.328125 38.882812 46.964844 80.746094 Z M 46.964844 80.746094 " fill-opacity="1" fill-rule="nonzero"/><path fill="#007bff" d="M 31.015625 52.265625 C 51.902344 45.339844 77.054688 42.679688 99.933594 47.140625 C 78.382812 45.621094 53.417969 50.9375 33.296875 57.679688 Z M 31.015625 52.265625 " fill-opacity="1" fill-rule="nonzero"/><path fill="#007bff" d="M 37.851562 65.367188 L 40.984375 71.347656 C 55.128906 62.234375 74.683594 58.246094 94.804688 59.386719 C 79.902344 51.699219 61.011719 54.546875 37.851562 65.367188 Z M 37.851562 65.367188 " fill-opacity="1" fill-rule="nonzero"/><path fill="#007bff" d="M 32.15625 37.746094 L 40.414062 34.042969 C 52.375 48.472656 58.640625 63.46875 62.628906 79.035156 C 55.035156 64.417969 46.585938 51.222656 32.15625 37.746094 Z M 32.15625 37.746094 " fill-opacity="1" fill-rule="nonzero"/><path fill="#007bff" d="M 49.242188 32.617188 L 56.363281 32.332031 C 67.183594 45.433594 71.742188 58.816406 71.742188 72.488281 C 67.660156 59.199219 61.296875 45.90625 49.242188 32.617188 Z M 49.242188 32.617188 " fill-opacity="1" fill-rule="nonzero"/><path fill="#007bff" d="M 69.175781 32.902344 L 76.011719 33.1875 C 80.378906 44.484375 83.605469 55.210938 83.128906 67.074219 C 81.613281 55.113281 76.105469 44.578125 69.175781 32.902344 Z M 69.175781 32.902344 " fill-opacity="1" fill-rule="nonzero"/><path stroke-linecap="round" transform="matrix(0.100683, 0, 0, 0.100683, 40.984202, 48.546501)" fill-opacity="1" fill="#007bff" fill-rule="nonzero" stroke-linejoin="round" d="M 102.311086 514.654385 C 85.317721 514.88717 69.449487 519.736875 56.723862 529.630273 C 19.672118 558.379322 23.125107 618.86484 64.405794 664.723648 C 105.725278 710.543658 169.275809 724.433212 206.327553 695.684163 C 243.379297 666.935113 239.926308 606.372 198.606823 560.55199 C 171.526072 530.483821 134.823507 514.188813 102.349884 514.654385 Z M 131.448112 572.074889 C 145.686845 571.842103 161.749067 579.562833 173.621144 593.762768 C 191.700844 615.373052 193.213952 643.889316 177.035337 657.468489 C 160.817924 671.008865 132.96122 664.490862 114.842723 642.880578 C 96.763024 621.231496 95.288714 592.676434 111.467329 579.136059 C 117.054189 574.441544 123.998966 572.152484 131.448112 572.074889 Z M 131.448112 572.074889 " stroke="#fffdff" stroke-width="9.127" stroke-opacity="1" stroke-miterlimit="4"/><path stroke-linecap="round" transform="matrix(0.100683, 0, 0, 0.100683, 40.984202, 48.546501)" fill-opacity="1" fill="#007bff" fill-rule="nonzero" stroke-linejoin="round" d="M 607.223545 514.654385 C 590.191382 514.88717 574.323148 519.736875 561.597523 529.630273 C 524.545779 558.379322 527.998768 618.86484 569.318253 664.723648 C 610.598939 710.543658 674.188268 724.433212 711.201214 695.684163 C 748.252958 666.935113 744.799969 606.372 703.480484 560.55199 C 676.399733 530.483821 639.697168 514.188813 607.223545 514.654385 Z M 636.321773 572.074889 C 650.560506 571.842103 666.622728 579.562833 678.494806 593.762768 C 696.574505 615.373052 698.12641 643.889316 681.908998 657.468489 C 665.691585 671.008865 637.834881 664.490862 619.755182 642.880578 C 601.675483 621.231496 600.162375 592.676434 616.379787 579.136059 C 621.92785 574.441544 628.872627 572.152484 636.321773 572.074889 Z M 636.321773 572.074889 " stroke="#fffdff" stroke-width="9.127" stroke-opacity="1" stroke-miterlimit="4"/><g fill="#007bff" fill-opacity="1"><g transform="translate(148.818316, 51.738989)"><g><path d="M 13.8125 -10 C 11.53125 -8.238281 10.390625 -6.125 10.390625 -3.65625 C 10.390625 -2.726562 10.5625 -1.820312 10.90625 -0.9375 C 11.257812 -0.0507812 11.773438 0.738281 12.453125 1.4375 C 13.140625 2.132812 13.976562 2.695312 14.96875 3.125 C 15.96875 3.550781 17.097656 3.765625 18.359375 3.765625 C 18.722656 3.765625 19.316406 3.734375 20.140625 3.671875 C 20.972656 3.617188 21.800781 3.453125 22.625 3.171875 C 23.457031 2.898438 24.1875 2.46875 24.8125 1.875 C 25.445312 1.289062 25.765625 0.460938 25.765625 -0.609375 C 25.765625 -1.046875 25.523438 -1.363281 25.046875 -1.5625 C 24.566406 -1.769531 23.957031 -1.957031 23.21875 -2.125 C 22.476562 -2.289062 21.691406 -2.484375 20.859375 -2.703125 C 20.035156 -2.929688 19.253906 -3.285156 18.515625 -3.765625 C 17.773438 -4.242188 17.164062 -4.894531 16.6875 -5.71875 C 16.207031 -6.550781 15.96875 -7.664062 15.96875 -9.0625 C 15.96875 -10.875 16.484375 -12.660156 17.515625 -14.421875 C 18.554688 -16.191406 19.875 -17.769531 21.46875 -19.15625 C 23.070312 -20.539062 24.832031 -21.65625 26.75 -22.5 C 28.664062 -23.34375 30.507812 -23.765625 32.28125 -23.765625 C 33.613281 -23.765625 34.894531 -23.582031 36.125 -23.21875 C 37.363281 -22.851562 38.453125 -22.289062 39.390625 -21.53125 C 40.328125 -20.78125 41.070312 -19.84375 41.625 -18.71875 C 42.175781 -17.59375 42.453125 -16.273438 42.453125 -14.765625 L 42.453125 -11.71875 C 42.453125 -10.90625 42.546875 -10.257812 42.734375 -9.78125 C 42.921875 -9.300781 43.1875 -8.929688 43.53125 -8.671875 C 43.882812 -8.421875 44.304688 -8.25 44.796875 -8.15625 C 45.296875 -8.0625 45.84375 -8.015625 46.4375 -8.015625 L 46.4375 0 C 44.226562 0 42.40625 -0.21875 40.96875 -0.65625 C 39.53125 -1.101562 38.382812 -1.785156 37.53125 -2.703125 C 36.6875 -3.628906 36.097656 -4.789062 35.765625 -6.1875 C 35.429688 -7.59375 35.265625 -9.253906 35.265625 -11.171875 C 35.265625 -11.648438 35.238281 -12.132812 35.1875 -12.625 C 35.132812 -13.125 35.015625 -13.566406 34.828125 -13.953125 C 34.640625 -14.335938 34.359375 -14.660156 33.984375 -14.921875 C 33.617188 -15.179688 33.144531 -15.3125 32.5625 -15.3125 C 31.269531 -15.3125 30.078125 -15.085938 28.984375 -14.640625 C 27.898438 -14.203125 26.953125 -13.6875 26.140625 -13.09375 C 25.335938 -12.507812 24.703125 -11.90625 24.234375 -11.28125 C 23.773438 -10.65625 23.546875 -10.15625 23.546875 -9.78125 C 23.546875 -9.269531 23.8125 -8.875 24.34375 -8.59375 C 24.882812 -8.320312 25.539062 -8.070312 26.3125 -7.84375 C 27.082031 -7.625 27.9375 -7.394531 28.875 -7.15625 C 29.820312 -6.914062 30.679688 -6.570312 31.453125 -6.125 C 32.222656 -5.6875 32.875 -5.085938 33.40625 -4.328125 C 33.945312 -3.578125 34.21875 -2.613281 34.21875 -1.4375 C 34.21875 0.738281 33.738281 2.65625 32.78125 4.3125 C 31.820312 5.96875 30.585938 7.347656 29.078125 8.453125 C 27.566406 9.554688 25.878906 10.382812 24.015625 10.9375 C 22.160156 11.5 20.328125 11.78125 18.515625 11.78125 C 16.421875 11.78125 14.453125 11.4375 12.609375 10.75 C 10.765625 10.070312 9.164062 9.125 7.8125 7.90625 C 6.46875 6.6875 5.410156 5.226562 4.640625 3.53125 C 3.867188 1.84375 3.484375 -0.03125 3.484375 -2.09375 C 3.484375 -4.34375 4.085938 -6.472656 5.296875 -8.484375 C 6.515625 -10.492188 8.117188 -12.253906 10.109375 -13.765625 Z M 12.984375 15.3125 C 12.984375 14.570312 13.238281 13.925781 13.75 13.375 C 14.269531 12.820312 14.914062 12.546875 15.6875 12.546875 C 16.425781 12.546875 17.070312 12.820312 17.625 13.375 C 18.175781 13.925781 18.453125 14.570312 18.453125 15.3125 C 18.453125 16.082031 18.175781 16.722656 17.625 17.234375 C 17.070312 17.753906 16.425781 18.015625 15.6875 18.015625 C 14.914062 18.015625 14.269531 17.753906 13.75 17.234375 C 13.238281 16.722656 12.984375 16.082031 12.984375 15.3125 Z M 19.28125 15.3125 C 19.28125 14.570312 19.535156 13.925781 20.046875 13.375 C 20.566406 12.820312 21.21875 12.546875 22 12.546875 C 22.726562 12.546875 23.367188 12.820312 23.921875 13.375 C 24.484375 13.925781 24.765625 14.570312 24.765625 15.3125 C 24.765625 16.082031 24.484375 16.722656 23.921875 17.234375 C 23.367188 17.753906 22.726562 18.015625 22 18.015625 C 21.21875 18.015625 20.566406 17.753906 20.046875 17.234375 C 19.535156 16.722656 19.28125 16.082031 19.28125 15.3125 Z M 19.28125 15.3125 "/></g></g></g><g fill="#007bff" fill-opacity="1"><g transform="translate(195.248281, 51.738989)"><g><path d="M -3.203125 -3.984375 C -3.203125 -4.535156 -3.097656 -5.054688 -2.890625 -5.546875 C -2.691406 -6.046875 -2.445312 -6.472656 -2.15625 -6.828125 C -1.863281 -7.179688 -1.519531 -7.46875 -1.125 -7.6875 C -0.738281 -7.90625 -0.363281 -8.015625 0 -8.015625 L 11.0625 -8.015625 L 11.0625 0 L 0 0 C -0.363281 0 -0.738281 -0.0976562 -1.125 -0.296875 C -1.519531 -0.503906 -1.863281 -0.789062 -2.15625 -1.15625 C -2.445312 -1.53125 -2.691406 -1.957031 -2.890625 -2.4375 C -3.097656 -2.914062 -3.203125 -3.429688 -3.203125 -3.984375 Z M -3.203125 -3.984375 "/></g></g></g><g fill="#007bff" fill-opacity="1"><g transform="translate(206.30303, 51.738989)"><g><path d="M -3.203125 -3.984375 C -3.203125 -4.535156 -3.097656 -5.054688 -2.890625 -5.546875 C -2.691406 -6.046875 -2.445312 -6.472656 -2.15625 -6.828125 C -1.863281 -7.179688 -1.519531 -7.46875 -1.125 -7.6875 C -0.738281 -7.90625 -0.363281 -8.015625 0 -8.015625 L 11.0625 -8.015625 L 11.0625 0 L 0 0 C -0.363281 0 -0.738281 -0.0976562 -1.125 -0.296875 C -1.519531 -0.503906 -1.863281 -0.789062 -2.15625 -1.15625 C -2.445312 -1.53125 -2.691406 -1.957031 -2.890625 -2.4375 C -3.097656 -2.914062 -3.203125 -3.429688 -3.203125 -3.984375 Z M -3.203125 -3.984375 "/></g></g></g><g fill="#007bff" fill-opacity="1"><g transform="translate(217.35778, 51.738989)"><g><path d="M 10.5 -39.796875 L 10.5 -10.28125 C 10.5 -6.8125 9.59375 -4.226562 7.78125 -2.53125 C 5.976562 -0.84375 3.382812 0 0 0 C -0.363281 0 -0.738281 -0.0976562 -1.125 -0.296875 C -1.519531 -0.503906 -1.863281 -0.789062 -2.15625 -1.15625 C -2.445312 -1.53125 -2.691406 -1.957031 -2.890625 -2.4375 C -3.097656 -2.914062 -3.203125 -3.429688 -3.203125 -3.984375 C -3.203125 -4.535156 -3.097656 -5.054688 -2.890625 -5.546875 C -2.691406 -6.046875 -2.445312 -6.472656 -2.15625 -6.828125 C -1.863281 -7.179688 -1.519531 -7.46875 -1.125 -7.6875 C -0.738281 -7.90625 -0.363281 -8.015625 0 -8.015625 C 1.25 -8.015625 2.140625 -8.335938 2.671875 -8.984375 C 3.210938 -9.628906 3.484375 -10.539062 3.484375 -11.71875 L 3.484375 -35.375 Z M 10.5 -39.796875 "/></g></g></g><g fill="#007bff" fill-opacity="1"><g transform="translate(230.236316, 51.738989)"><g><path d="M 11.171875 0 L 11.171875 2.546875 C 11.171875 5.828125 10.347656 8.367188 8.703125 10.171875 C 7.066406 11.972656 4.921875 12.875 2.265625 12.875 L -1.65625 12.875 L -1.65625 4.921875 L 2.21875 4.921875 C 2.800781 4.921875 3.265625 4.707031 3.609375 4.28125 C 3.960938 3.863281 4.140625 3.285156 4.140625 2.546875 L 4.140625 -16.3125 L 11.171875 -20.734375 L 11.171875 -8.015625 L 14.65625 -8.015625 L 14.65625 0 Z M 11.171875 0 "/></g></g></g><g fill="#007bff" fill-opacity="1"><g transform="translate(244.883862, 51.738989)"><g><path d="M -3.203125 -3.984375 C -3.203125 -4.535156 -3.097656 -5.054688 -2.890625 -5.546875 C -2.691406 -6.046875 -2.445312 -6.472656 -2.15625 -6.828125 C -1.863281 -7.179688 -1.519531 -7.46875 -1.125 -7.6875 C -0.738281 -7.90625 -0.363281 -8.015625 0 -8.015625 L 11.0625 -8.015625 L 11.0625 0 L 0 0 C -0.363281 0 -0.738281 -0.0976562 -1.125 -0.296875 C -1.519531 -0.503906 -1.863281 -0.789062 -2.15625 -1.15625 C -2.445312 -1.53125 -2.691406 -1.957031 -2.890625 -2.4375 C -3.097656 -2.914062 -3.203125 -3.429688 -3.203125 -3.984375 Z M -3.203125 -3.984375 "/></g></g></g><g fill="#007bff" fill-opacity="1"><g transform="translate(255.938611, 51.738989)"><g><path d="M -3.203125 -3.984375 C -3.203125 -4.535156 -3.097656 -5.054688 -2.890625 -5.546875 C -2.691406 -6.046875 -2.445312 -6.472656 -2.15625 -6.828125 C -1.863281 -7.179688 -1.519531 -7.46875 -1.125 -7.6875 C -0.738281 -7.90625 -0.363281 -8.015625 0 -8.015625 L 11.0625 -8.015625 L 11.0625 0 L 0 0 C -0.363281 0 -0.738281 -0.0976562 -1.125 -0.296875 C -1.519531 -0.503906 -1.863281 -0.789062 -2.15625 -1.15625 C -2.445312 -1.53125 -2.691406 -1.957031 -2.890625 -2.4375 C -3.097656 -2.914062 -3.203125 -3.429688 -3.203125 -3.984375 Z M -3.203125 -3.984375 "/></g></g></g><g fill="#007bff" fill-opacity="1"><g transform="translate(266.99336, 51.738989)"><g><path d="M -3.203125 -3.984375 C -3.203125 -4.535156 -3.097656 -5.054688 -2.890625 -5.546875 C -2.691406 -6.046875 -2.445312 -6.472656 -2.15625 -6.828125 C -1.863281 -7.179688 -1.519531 -7.46875 -1.125 -7.6875 C -0.738281 -7.90625 -0.363281 -8.015625 0 -8.015625 L 11.0625 -8.015625 L 11.0625 0 L 0 0 C -0.363281 0 -0.738281 -0.0976562 -1.125 -0.296875 C -1.519531 -0.503906 -1.863281 -0.789062 -2.15625 -1.15625 C -2.445312 -1.53125 -2.691406 -1.957031 -2.890625 -2.4375 C -3.097656 -2.914062 -3.203125 -3.429688 -3.203125 -3.984375 Z M -3.203125 -3.984375 "/></g></g></g><g fill="#007bff" fill-opacity="1"><g transform="translate(278.04811, 51.738989)"><g><path d="M -3.203125 -3.984375 C -3.203125 -4.535156 -3.097656 -5.054688 -2.890625 -5.546875 C -2.691406 -6.046875 -2.445312 -6.472656 -2.15625 -6.828125 C -1.863281 -7.179688 -1.519531 -7.46875 -1.125 -7.6875 C -0.738281 -7.90625 -0.363281 -8.015625 0 -8.015625 L 2.8125 -8.015625 L 4.375 -7.125 C 4.070312 -7.644531 3.847656 -8.28125 3.703125 -9.03125 C 3.554688 -9.789062 3.484375 -10.445312 3.484375 -11 C 3.484375 -12.40625 3.722656 -13.769531 4.203125 -15.09375 C 4.679688 -16.414062 5.367188 -17.601562 6.265625 -18.65625 C 7.171875 -19.707031 8.257812 -20.546875 9.53125 -21.171875 C 10.800781 -21.796875 12.25 -22.109375 13.875 -22.109375 C 15.457031 -22.109375 16.875 -21.785156 18.125 -21.140625 C 19.382812 -20.492188 20.445312 -19.632812 21.3125 -18.5625 C 22.175781 -17.5 22.835938 -16.238281 23.296875 -14.78125 C 23.753906 -13.332031 23.984375 -11.816406 23.984375 -10.234375 L 23.984375 0 L 0 0 C -0.363281 0 -0.738281 -0.0976562 -1.125 -0.296875 C -1.519531 -0.503906 -1.863281 -0.789062 -2.15625 -1.15625 C -2.445312 -1.53125 -2.691406 -1.957031 -2.890625 -2.4375 C -3.097656 -2.914062 -3.203125 -3.429688 -3.203125 -3.984375 Z M 16.96875 -8.015625 L 16.96875 -10.953125 C 16.96875 -11.648438 16.703125 -12.347656 16.171875 -13.046875 C 15.640625 -13.742188 14.875 -14.09375 13.875 -14.09375 C 12.914062 -14.09375 12.113281 -13.78125 11.46875 -13.15625 C 10.820312 -12.53125 10.5 -11.796875 10.5 -10.953125 C 10.5 -10.242188 10.847656 -9.578125 11.546875 -8.953125 C 12.253906 -8.328125 13.414062 -8.015625 15.03125 -8.015625 Z M 11 -27.578125 C 11 -28.316406 11.253906 -28.960938 11.765625 -29.515625 C 12.285156 -30.066406 12.929688 -30.34375 13.703125 -30.34375 C 14.441406 -30.34375 15.085938 -30.066406 15.640625 -29.515625 C 16.191406 -28.960938 16.46875 -28.316406 16.46875 -27.578125 C 16.46875 -26.804688 16.191406 -26.160156 15.640625 -25.640625 C 15.085938 -25.128906 14.441406 -24.875 13.703125 -24.875 C 12.929688 -24.875 12.285156 -25.128906 11.765625 -25.640625 C 11.253906 -26.160156 11 -26.804688 11 -27.578125 Z M 11 -27.578125 "/></g></g></g><g fill="#007bff" fill-opacity="1"><g transform="translate(305.519173, 51.738989)"><g><path d="M 13.875 -22.109375 C 15.351562 -22.109375 16.707031 -21.8125 17.9375 -21.21875 C 19.175781 -20.632812 20.242188 -19.832031 21.140625 -18.8125 C 22.046875 -17.800781 22.742188 -16.613281 23.234375 -15.25 C 23.734375 -13.894531 23.984375 -12.460938 23.984375 -10.953125 L 23.984375 -1.875 C 23.984375 0.550781 23.53125 2.675781 22.625 4.5 C 21.726562 6.320312 20.476562 7.859375 18.875 9.109375 C 17.269531 10.367188 15.363281 11.3125 13.15625 11.9375 C 10.945312 12.5625 8.535156 12.875 5.921875 12.875 L 5.921875 6.078125 C 7.023438 6.078125 8.097656 5.921875 9.140625 5.609375 C 10.191406 5.296875 11.175781 4.863281 12.09375 4.3125 C 13.019531 3.757812 13.878906 3.113281 14.671875 2.375 C 15.460938 1.632812 16.15625 0.84375 16.75 0 L 15.03125 0 C 13.300781 0 11.726562 -0.238281 10.3125 -0.71875 C 8.894531 -1.195312 7.675781 -1.894531 6.65625 -2.8125 C 5.644531 -3.738281 4.863281 -4.890625 4.3125 -6.265625 C 3.757812 -7.648438 3.484375 -9.226562 3.484375 -11 C 3.484375 -12.40625 3.722656 -13.769531 4.203125 -15.09375 C 4.679688 -16.414062 5.367188 -17.601562 6.265625 -18.65625 C 7.171875 -19.707031 8.257812 -20.546875 9.53125 -21.171875 C 10.800781 -21.796875 12.25 -22.109375 13.875 -22.109375 Z M 17.03125 -8.015625 L 17.03125 -10.953125 C 17.03125 -11.648438 16.753906 -12.347656 16.203125 -13.046875 C 15.648438 -13.742188 14.875 -14.09375 13.875 -14.09375 C 12.914062 -14.09375 12.113281 -13.78125 11.46875 -13.15625 C 10.820312 -12.53125 10.5 -11.796875 10.5 -10.953125 C 10.5 -10.242188 10.847656 -9.578125 11.546875 -8.953125 C 12.253906 -8.328125 13.414062 -8.015625 15.03125 -8.015625 Z M 17.03125 -8.015625 "/></g></g></g><g fill="#007bff" fill-opacity="1"><g transform="translate(332.990236, 51.738989)"><g><path d="M 10.5 0 L 3.484375 0 L 3.484375 -29.859375 L 10.5 -34.28125 Z M 10.5625 -35.375 L 1.765625 -35.375 L 1.765625 -38.6875 L 2.984375 -38.6875 L 3.65625 -38.421875 C 3.582031 -38.597656 3.523438 -38.914062 3.484375 -39.375 C 3.453125 -39.84375 3.4375 -40.164062 3.4375 -40.34375 C 3.4375 -41.632812 3.8125 -42.675781 4.5625 -43.46875 C 5.320312 -44.257812 6.34375 -44.65625 7.625 -44.65625 C 8.664062 -44.65625 9.617188 -44.320312 10.484375 -43.65625 C 11.347656 -43 11.925781 -42.046875 12.21875 -40.796875 L 8.953125 -40.796875 C 8.585938 -41.085938 8.203125 -41.234375 7.796875 -41.234375 C 7.503906 -41.234375 7.242188 -41.140625 7.015625 -40.953125 C 6.796875 -40.773438 6.6875 -40.484375 6.6875 -40.078125 C 6.726562 -39.554688 6.914062 -39.191406 7.25 -38.984375 C 7.582031 -38.785156 8.039062 -38.6875 8.625 -38.6875 L 12.171875 -38.6875 Z M 10.5625 -35.375 "/></g></g></g><g fill="#007bff" fill-opacity="1"><g transform="translate(148.818316, 90.101619)"><g><path d="M 0.984375 0 L 1.984375 -2.796875 L 8.078125 -2.796875 L 8.078125 -4.65625 C 8.078125 -5.226562 7.9375 -5.679688 7.65625 -6.015625 C 7.382812 -6.347656 6.988281 -6.515625 6.46875 -6.515625 L 2.65625 -6.515625 L 3.6875 -9.34375 L 6.59375 -9.34375 C 7.863281 -9.34375 8.851562 -8.921875 9.5625 -8.078125 C 10.269531 -7.234375 10.625 -6.132812 10.625 -4.78125 L 10.625 -2.796875 L 12.3125 -2.796875 L 12.3125 0 Z M 0.984375 0 "/></g></g></g><g fill="#007bff" fill-opacity="1"><g transform="translate(161.120728, 90.101619)"><g><path d="M -1.265625 -1.390625 C -1.265625 -1.785156 -1.132812 -2.117188 -0.875 -2.390625 C -0.625 -2.660156 -0.332031 -2.796875 0 -2.796875 L 4.953125 -2.796875 L 4.953125 0 L 0 0 C -0.3125 0 -0.597656 -0.125 -0.859375 -0.375 C -1.128906 -0.632812 -1.265625 -0.972656 -1.265625 -1.390625 Z M -1.265625 -1.390625 "/></g></g></g><g fill="#007bff" fill-opacity="1"><g transform="translate(166.071408, 90.101619)"><g><path d="M 4.3125 -9.34375 L 4.3125 -4.4375 C 4.3125 -2.925781 3.960938 -1.804688 3.265625 -1.078125 C 2.578125 -0.359375 1.488281 0 0 0 C -0.3125 0 -0.597656 -0.125 -0.859375 -0.375 C -1.128906 -0.632812 -1.265625 -0.972656 -1.265625 -1.390625 C -1.265625 -1.785156 -1.132812 -2.117188 -0.875 -2.390625 C -0.625 -2.660156 -0.332031 -2.796875 0 -2.796875 C 0.738281 -2.796875 1.21875 -3 1.4375 -3.40625 C 1.65625 -3.820312 1.765625 -4.40625 1.765625 -5.15625 L 1.765625 -7.734375 Z M 0.296875 2.3125 C 0.296875 2.007812 0.394531 1.75 0.59375 1.53125 C 0.789062 1.320312 1.046875 1.21875 1.359375 1.21875 C 1.648438 1.21875 1.90625 1.320312 2.125 1.53125 C 2.34375 1.75 2.453125 2.007812 2.453125 2.3125 C 2.453125 2.625 2.34375 2.878906 2.125 3.078125 C 1.90625 3.273438 1.648438 3.375 1.359375 3.375 C 1.046875 3.375 0.789062 3.273438 0.59375 3.078125 C 0.394531 2.878906 0.296875 2.625 0.296875 2.3125 Z M 3.015625 2.3125 C 3.015625 2.007812 3.117188 1.75 3.328125 1.53125 C 3.535156 1.320312 3.785156 1.21875 4.078125 1.21875 C 4.378906 1.21875 4.632812 1.320312 4.84375 1.53125 C 5.0625 1.75 5.171875 2.007812 5.171875 2.3125 C 5.171875 2.625 5.0625 2.878906 4.84375 3.078125 C 4.632812 3.273438 4.378906 3.375 4.078125 3.375 C 3.785156 3.375 3.535156 3.273438 3.328125 3.078125 C 3.117188 2.878906 3.015625 2.625 3.015625 2.3125 Z M 3.015625 2.3125 "/></g></g></g><g fill="#007bff" fill-opacity="1"><g transform="translate(172.03696, 90.101619)"><g><path d="M 0.984375 0 L 1.984375 -2.796875 L 8.078125 -2.796875 L 8.078125 -4.65625 C 8.078125 -5.226562 7.9375 -5.679688 7.65625 -6.015625 C 7.382812 -6.347656 6.988281 -6.515625 6.46875 -6.515625 L 2.65625 -6.515625 L 3.6875 -9.34375 L 6.59375 -9.34375 C 7.863281 -9.34375 8.851562 -8.921875 9.5625 -8.078125 C 10.269531 -7.234375 10.625 -6.132812 10.625 -4.78125 L 10.625 -2.796875 L 12.3125 -2.796875 L 12.3125 0 Z M 0.984375 0 "/></g></g></g><g fill="#007bff" fill-opacity="1"><g transform="translate(184.339372, 90.101619)"><g><path d="M -1.265625 -1.390625 C -1.265625 -1.785156 -1.132812 -2.117188 -0.875 -2.390625 C -0.625 -2.660156 -0.332031 -2.796875 0 -2.796875 L 7.953125 -2.796875 L 7.953125 -4.6875 C 7.953125 -5.238281 7.8125 -5.679688 7.53125 -6.015625 C 7.257812 -6.359375 6.863281 -6.53125 6.34375 -6.53125 L 1.6875 -6.53125 L 2.703125 -9.34375 L 6.46875 -9.34375 C 7.738281 -9.34375 8.726562 -8.921875 9.4375 -8.078125 C 10.144531 -7.242188 10.5 -6.148438 10.5 -4.796875 L 10.5 -2.796875 L 11.421875 -2.796875 L 10.375 0 L 0 0 C -0.3125 0 -0.597656 -0.125 -0.859375 -0.375 C -1.128906 -0.632812 -1.265625 -0.972656 -1.265625 -1.390625 Z M 3.765625 2.3125 C 3.765625 2.007812 3.863281 1.75 4.0625 1.53125 C 4.257812 1.320312 4.515625 1.21875 4.828125 1.21875 C 5.128906 1.21875 5.382812 1.320312 5.59375 1.53125 C 5.8125 1.75 5.921875 2.007812 5.921875 2.3125 C 5.921875 2.625 5.8125 2.878906 5.59375 3.078125 C 5.382812 3.273438 5.128906 3.375 4.828125 3.375 C 4.515625 3.375 4.257812 3.273438 4.0625 3.078125 C 3.863281 2.878906 3.765625 2.625 3.765625 2.3125 Z M 3.765625 2.3125 "/></g></g></g><g fill="#007bff" fill-opacity="1"><g transform="translate(196.51802, 90.101619)"><g/></g></g><g fill="#007bff" fill-opacity="1"><g transform="translate(198.99336, 90.101619)"><g><path d="M 8.84375 -9.34375 C 9.5 -9.34375 10.097656 -9.207031 10.640625 -8.9375 C 11.191406 -8.675781 11.65625 -8.328125 12.03125 -7.890625 C 12.414062 -7.453125 12.707031 -6.953125 12.90625 -6.390625 C 13.113281 -5.828125 13.21875 -5.238281 13.21875 -4.625 C 13.21875 -3.175781 12.78125 -2.039062 11.90625 -1.21875 C 11.03125 -0.40625 9.835938 0 8.328125 0 L 5.46875 0 C 5.15625 0.03125 4.867188 0.21875 4.609375 0.5625 C 4.359375 0.914062 4.234375 1.332031 4.234375 1.8125 L 4.234375 7.484375 L 1.65625 7.484375 L 1.65625 1.8125 C 1.65625 0.65625 1.90625 -0.316406 2.40625 -1.109375 C 2.914062 -1.898438 3.640625 -2.460938 4.578125 -2.796875 L 4.578125 -4.609375 C 4.578125 -5.253906 4.679688 -5.859375 4.890625 -6.421875 C 5.109375 -6.992188 5.40625 -7.5 5.78125 -7.9375 C 6.164062 -8.375 6.617188 -8.71875 7.140625 -8.96875 C 7.660156 -9.21875 8.226562 -9.34375 8.84375 -9.34375 Z M 8.328125 -2.796875 C 9.117188 -2.796875 9.707031 -2.972656 10.09375 -3.328125 C 10.476562 -3.679688 10.671875 -4.109375 10.671875 -4.609375 C 10.671875 -5.117188 10.5 -5.566406 10.15625 -5.953125 C 9.820312 -6.335938 9.382812 -6.53125 8.84375 -6.53125 C 8.59375 -6.53125 8.359375 -6.476562 8.140625 -6.375 C 7.929688 -6.269531 7.75 -6.125 7.59375 -5.9375 C 7.445312 -5.757812 7.332031 -5.554688 7.25 -5.328125 C 7.164062 -5.097656 7.125 -4.859375 7.125 -4.609375 L 7.125 -2.796875 Z M 8.328125 -2.796875 "/></g></g></g><g fill="#007bff" fill-opacity="1"><g transform="translate(213.87013, 90.101619)"><g><path d="M 10.203125 0 C 10.066406 0.84375 9.789062 1.585938 9.375 2.234375 C 8.957031 2.890625 8.421875 3.441406 7.765625 3.890625 C 7.109375 4.347656 6.363281 4.691406 5.53125 4.921875 C 4.695312 5.160156 3.8125 5.28125 2.875 5.28125 L 2.875 2.890625 C 3.40625 2.890625 3.914062 2.8125 4.40625 2.65625 C 4.90625 2.5 5.351562 2.285156 5.75 2.015625 C 6.15625 1.742188 6.503906 1.429688 6.796875 1.078125 C 7.097656 0.734375 7.316406 0.375 7.453125 0 L 6.5625 0 C 5.039062 0 3.84375 -0.40625 2.96875 -1.21875 C 2.09375 -2.039062 1.65625 -3.175781 1.65625 -4.625 C 1.65625 -5.238281 1.757812 -5.828125 1.96875 -6.390625 C 2.175781 -6.953125 2.46875 -7.453125 2.84375 -7.890625 C 3.226562 -8.328125 3.6875 -8.675781 4.21875 -8.9375 C 4.757812 -9.207031 5.367188 -9.34375 6.046875 -9.34375 C 6.648438 -9.34375 7.210938 -9.21875 7.734375 -8.96875 C 8.253906 -8.71875 8.703125 -8.375 9.078125 -7.9375 C 9.460938 -7.5 9.757812 -6.992188 9.96875 -6.421875 C 10.1875 -5.859375 10.296875 -5.253906 10.296875 -4.609375 L 10.296875 -2.796875 L 11.96875 -2.796875 L 11.96875 0 Z M 7.75 -2.796875 L 7.75 -4.609375 C 7.75 -4.859375 7.707031 -5.097656 7.625 -5.328125 C 7.539062 -5.554688 7.425781 -5.757812 7.28125 -5.9375 C 7.132812 -6.125 6.953125 -6.269531 6.734375 -6.375 C 6.523438 -6.476562 6.296875 -6.53125 6.046875 -6.53125 C 5.492188 -6.53125 5.046875 -6.335938 4.703125 -5.953125 C 4.367188 -5.566406 4.203125 -5.117188 4.203125 -4.609375 C 4.203125 -4.109375 4.394531 -3.679688 4.78125 -3.328125 C 5.175781 -2.972656 5.769531 -2.796875 6.5625 -2.796875 Z M 7.75 -2.796875 "/></g></g></g><g fill="#007bff" fill-opacity="1"><g transform="translate(225.825997, 90.101619)"><g><path d="M -1.265625 -1.390625 C -1.265625 -1.785156 -1.132812 -2.117188 -0.875 -2.390625 C -0.625 -2.660156 -0.332031 -2.796875 0 -2.796875 L 4.953125 -2.796875 L 4.953125 0 L 0 0 C -0.3125 0 -0.597656 -0.125 -0.859375 -0.375 C -1.128906 -0.632812 -1.265625 -0.972656 -1.265625 -1.390625 Z M -1.265625 -1.390625 "/></g></g></g><g fill="#007bff" fill-opacity="1"><g transform="translate(230.776677, 90.101619)"><g><path d="M -1.265625 -1.390625 C -1.265625 -1.785156 -1.132812 -2.117188 -0.875 -2.390625 C -0.625 -2.660156 -0.332031 -2.796875 0 -2.796875 L 4.953125 -2.796875 L 4.953125 0 L 0 0 C -0.3125 0 -0.597656 -0.125 -0.859375 -0.375 C -1.128906 -0.632812 -1.265625 -0.972656 -1.265625 -1.390625 Z M -1.265625 -1.390625 "/></g></g></g><g fill="#007bff" fill-opacity="1"><g transform="translate(235.727357, 90.101619)"><g><path d="M -1.265625 -1.390625 C -1.265625 -1.785156 -1.132812 -2.117188 -0.875 -2.390625 C -0.625 -2.660156 -0.332031 -2.796875 0 -2.796875 L 4.953125 -2.796875 L 4.953125 0 L 0 0 C -0.3125 0 -0.597656 -0.125 -0.859375 -0.375 C -1.128906 -0.632812 -1.265625 -0.972656 -1.265625 -1.390625 Z M -1.265625 -1.390625 "/></g></g></g><g fill="#007bff" fill-opacity="1"><g transform="translate(240.678038, 90.101619)"><g><path d="M -1.265625 -1.390625 C -1.265625 -1.785156 -1.132812 -2.117188 -0.875 -2.390625 C -0.625 -2.660156 -0.332031 -2.796875 0 -2.796875 L 4.953125 -2.796875 L 4.953125 0 L 0 0 C -0.3125 0 -0.597656 -0.125 -0.859375 -0.375 C -1.128906 -0.632812 -1.265625 -0.972656 -1.265625 -1.390625 Z M -1.265625 -1.390625 "/></g></g></g><g fill="#007bff" fill-opacity="1"><g transform="translate(245.628718, 90.101619)"><g><path d="M -1.265625 -1.390625 C -1.265625 -1.785156 -1.132812 -2.117188 -0.875 -2.390625 C -0.625 -2.660156 -0.332031 -2.796875 0 -2.796875 L 4.953125 -2.796875 L 4.953125 0 L 0 0 C -0.3125 0 -0.597656 -0.125 -0.859375 -0.375 C -1.128906 -0.632812 -1.265625 -0.972656 -1.265625 -1.390625 Z M -1.265625 -1.390625 "/></g></g></g><g fill="#007bff" fill-opacity="1"><g transform="translate(250.579399, 90.101619)"><g><path d="M -1.265625 -1.390625 C -1.265625 -1.785156 -1.132812 -2.117188 -0.875 -2.390625 C -0.625 -2.660156 -0.332031 -2.796875 0 -2.796875 L 4.953125 -2.796875 L 4.953125 0 L 0 0 C -0.3125 0 -0.597656 -0.125 -0.859375 -0.375 C -1.128906 -0.632812 -1.265625 -0.972656 -1.265625 -1.390625 Z M -1.265625 -1.390625 "/></g></g></g><g fill="#007bff" fill-opacity="1"><g transform="translate(255.530079, 90.101619)"><g><path d="M 0 0 C -0.300781 0 -0.585938 -0.125 -0.859375 -0.375 C -1.128906 -0.632812 -1.265625 -0.972656 -1.265625 -1.390625 C -1.265625 -1.785156 -1.132812 -2.117188 -0.875 -2.390625 C -0.625 -2.660156 -0.332031 -2.796875 0 -2.796875 L 1.390625 -2.796875 L 2.03125 -2.5 C 1.894531 -2.757812 1.796875 -3.039062 1.734375 -3.34375 C 1.679688 -3.65625 1.65625 -3.96875 1.65625 -4.28125 C 1.65625 -4.863281 1.753906 -5.414062 1.953125 -5.9375 C 2.148438 -6.457031 2.441406 -6.90625 2.828125 -7.28125 L 1.0625 -7.28125 L 2.078125 -10.078125 L 10.359375 -10.078125 C 11.609375 -10.078125 12.59375 -9.660156 13.3125 -8.828125 C 14.03125 -7.992188 14.390625 -6.898438 14.390625 -5.546875 L 14.390625 -2.796875 L 16.046875 -2.796875 L 16.046875 0 Z M 8.640625 -7.28125 C 8.984375 -6.914062 9.257812 -6.484375 9.46875 -5.984375 C 9.675781 -5.492188 9.78125 -4.960938 9.78125 -4.390625 L 9.78125 -2.796875 L 11.84375 -2.796875 L 11.84375 -5.421875 C 11.84375 -5.984375 11.703125 -6.429688 11.421875 -6.765625 C 11.148438 -7.109375 10.753906 -7.28125 10.234375 -7.28125 Z M 7.234375 -2.796875 L 7.234375 -4.328125 C 7.234375 -4.765625 7.097656 -5.144531 6.828125 -5.46875 C 6.554688 -5.800781 6.203125 -5.96875 5.765625 -5.96875 C 5.304688 -5.96875 4.929688 -5.800781 4.640625 -5.46875 C 4.347656 -5.144531 4.203125 -4.765625 4.203125 -4.328125 C 4.203125 -3.898438 4.367188 -3.535156 4.703125 -3.234375 C 5.035156 -2.941406 5.539062 -2.796875 6.21875 -2.796875 Z M 7.234375 -2.796875 "/></g></g></g><g fill="#007bff" fill-opacity="1"><g transform="translate(271.570264, 90.101619)"><g><path d="M -1.265625 -1.390625 C -1.265625 -1.785156 -1.132812 -2.117188 -0.875 -2.390625 C -0.625 -2.660156 -0.332031 -2.796875 0 -2.796875 L 4.953125 -2.796875 L 4.953125 0 L 0 0 C -0.3125 0 -0.597656 -0.125 -0.859375 -0.375 C -1.128906 -0.632812 -1.265625 -0.972656 -1.265625 -1.390625 Z M -1.265625 -1.390625 "/></g></g></g><g fill="#007bff" fill-opacity="1"><g transform="translate(276.520945, 90.101619)"><g><path d="M -1.265625 -1.390625 C -1.265625 -1.785156 -1.132812 -2.117188 -0.875 -2.390625 C -0.625 -2.660156 -0.332031 -2.796875 0 -2.796875 L 4.953125 -2.796875 L 4.953125 0 L 0 0 C -0.3125 0 -0.597656 -0.125 -0.859375 -0.375 C -1.128906 -0.632812 -1.265625 -0.972656 -1.265625 -1.390625 Z M -1.265625 -1.390625 "/></g></g></g><g fill="#007bff" fill-opacity="1"><g transform="translate(281.471625, 90.101619)"><g><path d="M -1.265625 -1.390625 C -1.265625 -1.785156 -1.132812 -2.117188 -0.875 -2.390625 C -0.625 -2.660156 -0.332031 -2.796875 0 -2.796875 L 4.953125 -2.796875 L 4.953125 0 L 0 0 C -0.3125 0 -0.597656 -0.125 -0.859375 -0.375 C -1.128906 -0.632812 -1.265625 -0.972656 -1.265625 -1.390625 Z M -1.265625 -1.390625 "/></g></g></g><g fill="#007bff" fill-opacity="1"><g transform="translate(286.422305, 90.101619)"><g><path d="M -1.265625 -1.390625 C -1.265625 -1.785156 -1.132812 -2.117188 -0.875 -2.390625 C -0.625 -2.660156 -0.332031 -2.796875 0 -2.796875 L 4.953125 -2.796875 L 4.953125 0 L 0 0 C -0.3125 0 -0.597656 -0.125 -0.859375 -0.375 C -1.128906 -0.632812 -1.265625 -0.972656 -1.265625 -1.390625 Z M -1.265625 -1.390625 "/></g></g></g><g fill="#007bff" fill-opacity="1"><g transform="translate(291.372986, 90.101619)"><g><path d="M -1.265625 -1.390625 C -1.265625 -1.785156 -1.132812 -2.117188 -0.875 -2.390625 C -0.625 -2.660156 -0.332031 -2.796875 0 -2.796875 L 4.953125 -2.796875 L 4.953125 0 L 0 0 C -0.3125 0 -0.597656 -0.125 -0.859375 -0.375 C -1.128906 -0.632812 -1.265625 -0.972656 -1.265625 -1.390625 Z M -1.265625 -1.390625 "/></g></g></g><g fill="#007bff" fill-opacity="1"><g transform="translate(296.323666, 90.101619)"><g><path d="M -1.265625 -1.390625 C -1.265625 -1.785156 -1.132812 -2.117188 -0.875 -2.390625 C -0.625 -2.660156 -0.332031 -2.796875 0 -2.796875 L 4.953125 -2.796875 L 4.953125 0 L 0 0 C -0.3125 0 -0.597656 -0.125 -0.859375 -0.375 C -1.128906 -0.632812 -1.265625 -0.972656 -1.265625 -1.390625 Z M -1.265625 -1.390625 "/></g></g></g><g fill="#007bff" fill-opacity="1"><g transform="translate(301.274347, 90.101619)"><g><path d="M 0 0 C -0.3125 0 -0.597656 -0.125 -0.859375 -0.375 C -1.128906 -0.632812 -1.265625 -0.972656 -1.265625 -1.390625 C -1.265625 -1.785156 -1.132812 -2.117188 -0.875 -2.390625 C -0.625 -2.660156 -0.332031 -2.796875 0 -2.796875 L 1.515625 -2.796875 L 2.25 -2.453125 C 2.070312 -2.734375 1.925781 -3.078125 1.8125 -3.484375 C 1.707031 -3.898438 1.65625 -4.28125 1.65625 -4.625 C 1.65625 -5.238281 1.757812 -5.828125 1.96875 -6.390625 C 2.175781 -6.953125 2.472656 -7.453125 2.859375 -7.890625 C 3.242188 -8.328125 3.703125 -8.675781 4.234375 -8.9375 C 4.773438 -9.207031 5.378906 -9.34375 6.046875 -9.34375 C 6.691406 -9.34375 7.269531 -9.207031 7.78125 -8.9375 C 8.300781 -8.675781 8.75 -8.320312 9.125 -7.875 C 9.5 -7.425781 9.785156 -6.910156 9.984375 -6.328125 C 10.191406 -5.742188 10.296875 -5.117188 10.296875 -4.453125 L 10.296875 -2.796875 L 11.984375 -2.796875 L 11.984375 0 Z M 7.75 -2.796875 L 7.75 -4.609375 C 7.75 -4.859375 7.707031 -5.097656 7.625 -5.328125 C 7.539062 -5.554688 7.425781 -5.757812 7.28125 -5.9375 C 7.132812 -6.125 6.957031 -6.269531 6.75 -6.375 C 6.539062 -6.476562 6.304688 -6.53125 6.046875 -6.53125 C 5.515625 -6.53125 5.070312 -6.335938 4.71875 -5.953125 C 4.375 -5.566406 4.203125 -5.117188 4.203125 -4.609375 C 4.203125 -4.109375 4.394531 -3.679688 4.78125 -3.328125 C 5.175781 -2.972656 5.769531 -2.796875 6.5625 -2.796875 Z M 4.9375 -11.640625 C 4.9375 -11.941406 5.035156 -12.195312 5.234375 -12.40625 C 5.429688 -12.625 5.6875 -12.734375 6 -12.734375 C 6.300781 -12.734375 6.554688 -12.625 6.765625 -12.40625 C 6.984375 -12.195312 7.09375 -11.941406 7.09375 -11.640625 C 7.09375 -11.328125 6.984375 -11.070312 6.765625 -10.875 C 6.554688 -10.675781 6.300781 -10.578125 6 -10.578125 C 5.6875 -10.578125 5.429688 -10.675781 5.234375 -10.875 C 5.035156 -11.070312 4.9375 -11.328125 4.9375 -11.640625 Z M 4.9375 -11.640625 "/></g></g></g><g fill="#007bff" fill-opacity="1"><g transform="translate(313.254977, 90.101619)"><g><path d="M -1.265625 -1.390625 C -1.265625 -1.785156 -1.132812 -2.117188 -0.875 -2.390625 C -0.625 -2.660156 -0.332031 -2.796875 0 -2.796875 L 4.953125 -2.796875 L 4.953125 0 L 0 0 C -0.3125 0 -0.597656 -0.125 -0.859375 -0.375 C -1.128906 -0.632812 -1.265625 -0.972656 -1.265625 -1.390625 Z M -1.265625 -1.390625 "/></g></g></g><g fill="#007bff" fill-opacity="1"><g transform="translate(318.205657, 90.101619)"><g><path d="M -1.265625 -1.390625 C -1.265625 -1.785156 -1.132812 -2.117188 -0.875 -2.390625 C -0.625 -2.660156 -0.332031 -2.796875 0 -2.796875 L 4.953125 -2.796875 L 4.953125 0 L 0 0 C -0.3125 0 -0.597656 -0.125 -0.859375 -0.375 C -1.128906 -0.632812 -1.265625 -0.972656 -1.265625 -1.390625 Z M -1.265625 -1.390625 "/></g></g></g><g fill="#007bff" fill-opacity="1"><g transform="translate(323.156337, 90.101619)"><g><path d="M -1.265625 -1.390625 C -1.265625 -1.785156 -1.132812 -2.117188 -0.875 -2.390625 C -0.625 -2.660156 -0.332031 -2.796875 0 -2.796875 L 4.953125 -2.796875 L 4.953125 0 L 0 0 C -0.3125 0 -0.597656 -0.125 -0.859375 -0.375 C -1.128906 -0.632812 -1.265625 -0.972656 -1.265625 -1.390625 Z M -1.265625 -1.390625 "/></g></g></g><g fill="#007bff" fill-opacity="1"><g transform="translate(328.107018, 90.101619)"><g><path d="M -1.265625 -1.390625 C -1.265625 -1.785156 -1.132812 -2.117188 -0.875 -2.390625 C -0.625 -2.660156 -0.332031 -2.796875 0 -2.796875 L 4.953125 -2.796875 L 4.953125 0 L 0 0 C -0.3125 0 -0.597656 -0.125 -0.859375 -0.375 C -1.128906 -0.632812 -1.265625 -0.972656 -1.265625 -1.390625 Z M -1.265625 -1.390625 "/></g></g></g><g fill="#007bff" fill-opacity="1"><g transform="translate(333.057698, 90.101619)"><g><path d="M -1.265625 -1.390625 C -1.265625 -1.785156 -1.132812 -2.117188 -0.875 -2.390625 C -0.625 -2.660156 -0.332031 -2.796875 0 -2.796875 C 0.34375 -2.796875 0.625 -2.847656 0.84375 -2.953125 C 1.070312 -3.066406 1.242188 -3.207031 1.359375 -3.375 C 1.472656 -3.550781 1.550781 -3.742188 1.59375 -3.953125 C 1.632812 -4.171875 1.65625 -4.394531 1.65625 -4.625 C 1.65625 -5.238281 1.757812 -5.828125 1.96875 -6.390625 C 2.175781 -6.953125 2.472656 -7.453125 2.859375 -7.890625 C 3.242188 -8.328125 3.703125 -8.675781 4.234375 -8.9375 C 4.773438 -9.207031 5.378906 -9.34375 6.046875 -9.34375 C 6.648438 -9.34375 7.210938 -9.21875 7.734375 -8.96875 C 8.253906 -8.71875 8.703125 -8.375 9.078125 -7.9375 C 9.460938 -7.5 9.757812 -6.992188 9.96875 -6.421875 C 10.1875 -5.859375 10.296875 -5.253906 10.296875 -4.609375 L 10.296875 0 L 6.5625 0 C 5.851562 0 5.207031 -0.09375 4.625 -0.28125 C 4.050781 -0.46875 3.554688 -0.738281 3.140625 -1.09375 C 2.773438 -0.707031 2.34375 -0.425781 1.84375 -0.25 C 1.351562 -0.0820312 0.738281 0 0 0 C -0.3125 0 -0.597656 -0.125 -0.859375 -0.375 C -1.128906 -0.632812 -1.265625 -0.972656 -1.265625 -1.390625 Z M 7.75 -2.796875 L 7.75 -4.609375 C 7.75 -4.859375 7.707031 -5.097656 7.625 -5.328125 C 7.539062 -5.554688 7.425781 -5.757812 7.28125 -5.9375 C 7.132812 -6.125 6.957031 -6.269531 6.75 -6.375 C 6.539062 -6.476562 6.304688 -6.53125 6.046875 -6.53125 C 5.515625 -6.53125 5.070312 -6.335938 4.71875 -5.953125 C 4.375 -5.566406 4.203125 -5.117188 4.203125 -4.609375 C 4.203125 -4.109375 4.394531 -3.679688 4.78125 -3.328125 C 5.175781 -2.972656 5.769531 -2.796875 6.5625 -2.796875 Z M 7.75 -2.796875 "/></g></g></g><g fill="#007bff" fill-opacity="1"><g transform="translate(148.818316, 111.709637)"><g><path d="M 10.953125 -8.796875 C 11.503906 -8.796875 12.023438 -8.675781 12.515625 -8.4375 C 13.003906 -8.195312 13.429688 -7.875 13.796875 -7.46875 C 14.160156 -7.0625 14.441406 -6.582031 14.640625 -6.03125 C 14.835938 -5.488281 14.9375 -4.921875 14.9375 -4.328125 L 14.9375 -0.71875 C 14.9375 0.207031 14.75 1.035156 14.375 1.765625 C 14 2.503906 13.503906 3.132812 12.890625 3.65625 C 12.273438 4.175781 11.554688 4.578125 10.734375 4.859375 C 9.921875 5.140625 9.066406 5.28125 8.171875 5.28125 C 7.210938 5.28125 6.332031 5.125 5.53125 4.8125 C 4.726562 4.507812 4.035156 4.082031 3.453125 3.53125 C 2.867188 2.988281 2.414062 2.335938 2.09375 1.578125 C 1.769531 0.828125 1.609375 -0.0078125 1.609375 -0.9375 C 1.609375 -1.832031 1.820312 -2.703125 2.25 -3.546875 C 2.675781 -4.398438 3.296875 -5.132812 4.109375 -5.75 L 5.203125 -4.53125 C 4.984375 -4.3125 4.78125 -4.097656 4.59375 -3.890625 C 4.414062 -3.691406 4.257812 -3.457031 4.125 -3.1875 C 4 -2.925781 3.898438 -2.625 3.828125 -2.28125 C 3.753906 -1.945312 3.71875 -1.539062 3.71875 -1.0625 C 3.75 -0.519531 3.875 0.00390625 4.09375 0.515625 C 4.320312 1.023438 4.625 1.484375 5 1.890625 C 5.382812 2.296875 5.84375 2.625 6.375 2.875 C 6.914062 3.125 7.515625 3.25 8.171875 3.25 C 8.734375 3.25 9.273438 3.171875 9.796875 3.015625 C 10.328125 2.867188 10.800781 2.65625 11.21875 2.375 C 11.644531 2.09375 12.003906 1.753906 12.296875 1.359375 C 12.597656 0.960938 12.800781 0.507812 12.90625 0 L 11.46875 0 C 10.726562 0 10.070312 -0.101562 9.5 -0.3125 C 8.925781 -0.53125 8.441406 -0.828125 8.046875 -1.203125 C 7.648438 -1.585938 7.347656 -2.046875 7.140625 -2.578125 C 6.929688 -3.109375 6.828125 -3.691406 6.828125 -4.328125 C 6.828125 -4.921875 6.925781 -5.484375 7.125 -6.015625 C 7.332031 -6.554688 7.613281 -7.035156 7.96875 -7.453125 C 8.332031 -7.867188 8.765625 -8.195312 9.265625 -8.4375 C 9.773438 -8.675781 10.335938 -8.796875 10.953125 -8.796875 Z M 12.984375 -2.03125 L 12.984375 -4.328125 C 12.984375 -4.660156 12.929688 -4.972656 12.828125 -5.265625 C 12.734375 -5.554688 12.59375 -5.8125 12.40625 -6.03125 C 12.226562 -6.25 12.015625 -6.425781 11.765625 -6.5625 C 11.515625 -6.695312 11.242188 -6.765625 10.953125 -6.765625 C 10.304688 -6.765625 9.785156 -6.519531 9.390625 -6.03125 C 8.992188 -5.539062 8.796875 -4.972656 8.796875 -4.328125 C 8.796875 -3.640625 9.023438 -3.082031 9.484375 -2.65625 C 9.941406 -2.238281 10.601562 -2.03125 11.46875 -2.03125 Z M 8.546875 -10.953125 C 8.546875 -11.210938 8.632812 -11.429688 8.8125 -11.609375 C 8.988281 -11.796875 9.207031 -11.890625 9.46875 -11.890625 C 9.726562 -11.890625 9.945312 -11.796875 10.125 -11.609375 C 10.3125 -11.429688 10.40625 -11.210938 10.40625 -10.953125 C 10.40625 -10.679688 10.3125 -10.457031 10.125 -10.28125 C 9.945312 -10.113281 9.726562 -10.03125 9.46875 -10.03125 C 9.207031 -10.03125 8.988281 -10.113281 8.8125 -10.28125 C 8.632812 -10.457031 8.546875 -10.679688 8.546875 -10.953125 Z M 10.90625 -10.953125 C 10.90625 -11.210938 10.988281 -11.429688 11.15625 -11.609375 C 11.332031 -11.796875 11.550781 -11.890625 11.8125 -11.890625 C 12.082031 -11.890625 12.304688 -11.796875 12.484375 -11.609375 C 12.671875 -11.429688 12.765625 -11.210938 12.765625 -10.953125 C 12.765625 -10.679688 12.671875 -10.457031 12.484375 -10.28125 C 12.304688 -10.113281 12.082031 -10.03125 11.8125 -10.03125 C 11.550781 -10.03125 11.332031 -10.113281 11.15625 -10.28125 C 10.988281 -10.457031 10.90625 -10.679688 10.90625 -10.953125 Z M 10.90625 -10.953125 "/></g></g></g><g fill="#007bff" fill-opacity="1"><g transform="translate(165.353555, 111.709637)"><g><path d="M 9.65625 0 C 9.5625 0.820312 9.316406 1.554688 8.921875 2.203125 C 8.523438 2.847656 8.019531 3.398438 7.40625 3.859375 C 6.789062 4.328125 6.097656 4.679688 5.328125 4.921875 C 4.566406 5.160156 3.773438 5.28125 2.953125 5.28125 L 2.953125 3.5625 C 3.515625 3.5625 4.050781 3.46875 4.5625 3.28125 C 5.082031 3.101562 5.554688 2.851562 5.984375 2.53125 C 6.421875 2.21875 6.785156 1.84375 7.078125 1.40625 C 7.378906 0.96875 7.578125 0.5 7.671875 0 L 6.234375 0 C 5.492188 0 4.835938 -0.101562 4.265625 -0.3125 C 3.703125 -0.53125 3.222656 -0.828125 2.828125 -1.203125 C 2.429688 -1.585938 2.128906 -2.046875 1.921875 -2.578125 C 1.710938 -3.109375 1.609375 -3.691406 1.609375 -4.328125 C 1.609375 -4.921875 1.707031 -5.484375 1.90625 -6.015625 C 2.101562 -6.554688 2.382812 -7.035156 2.75 -7.453125 C 3.113281 -7.867188 3.546875 -8.195312 4.046875 -8.4375 C 4.546875 -8.675781 5.101562 -8.796875 5.71875 -8.796875 C 6.28125 -8.796875 6.804688 -8.675781 7.296875 -8.4375 C 7.785156 -8.195312 8.207031 -7.875 8.5625 -7.46875 C 8.925781 -7.0625 9.207031 -6.582031 9.40625 -6.03125 C 9.601562 -5.488281 9.703125 -4.921875 9.703125 -4.328125 L 9.703125 -2.03125 L 11.3125 -2.03125 L 11.3125 0 Z M 7.75 -2.03125 L 7.75 -4.328125 C 7.75 -4.660156 7.695312 -4.972656 7.59375 -5.265625 C 7.5 -5.554688 7.359375 -5.8125 7.171875 -6.03125 C 6.992188 -6.25 6.78125 -6.425781 6.53125 -6.5625 C 6.289062 -6.695312 6.019531 -6.765625 5.71875 -6.765625 C 5.070312 -6.765625 4.550781 -6.519531 4.15625 -6.03125 C 3.757812 -5.539062 3.5625 -4.972656 3.5625 -4.328125 C 3.5625 -3.640625 3.789062 -3.082031 4.25 -2.65625 C 4.71875 -2.238281 5.378906 -2.03125 6.234375 -2.03125 Z M 7.75 -2.03125 "/></g></g></g><g fill="#007bff" fill-opacity="1"><g transform="translate(176.665841, 111.709637)"><g><path d="M -1.09375 -0.984375 C -1.09375 -1.285156 -0.984375 -1.535156 -0.765625 -1.734375 C -0.554688 -1.929688 -0.300781 -2.03125 0 -2.03125 L 4.953125 -2.03125 L 4.953125 0 L 0 0 C -0.28125 0 -0.53125 -0.0820312 -0.75 -0.25 C -0.976562 -0.425781 -1.09375 -0.671875 -1.09375 -0.984375 Z M -1.09375 -0.984375 "/></g></g></g><g fill="#007bff" fill-opacity="1"><g transform="translate(181.616522, 111.709637)"><g><path d="M -1.09375 -0.984375 C -1.09375 -1.285156 -0.984375 -1.535156 -0.765625 -1.734375 C -0.554688 -1.929688 -0.300781 -2.03125 0 -2.03125 L 4.953125 -2.03125 L 4.953125 0 L 0 0 C -0.28125 0 -0.53125 -0.0820312 -0.75 -0.25 C -0.976562 -0.425781 -1.09375 -0.671875 -1.09375 -0.984375 Z M -1.09375 -0.984375 "/></g></g></g><g fill="#007bff" fill-opacity="1"><g transform="translate(186.567202, 111.709637)"><g><path d="M -1.09375 -0.984375 C -1.09375 -1.285156 -0.984375 -1.535156 -0.765625 -1.734375 C -0.554688 -1.929688 -0.300781 -2.03125 0 -2.03125 L 4.953125 -2.03125 L 4.953125 0 L 0 0 C -0.28125 0 -0.53125 -0.0820312 -0.75 -0.25 C -0.976562 -0.425781 -1.09375 -0.671875 -1.09375 -0.984375 Z M -1.09375 -0.984375 "/></g></g></g><g fill="#007bff" fill-opacity="1"><g transform="translate(191.517882, 111.709637)"><g><path d="M -1.09375 -0.984375 C -1.09375 -1.285156 -0.984375 -1.535156 -0.765625 -1.734375 C -0.554688 -1.929688 -0.300781 -2.03125 0 -2.03125 L 4.953125 -2.03125 L 4.953125 0 L 0 0 C -0.28125 0 -0.53125 -0.0820312 -0.75 -0.25 C -0.976562 -0.425781 -1.09375 -0.671875 -1.09375 -0.984375 Z M -1.09375 -0.984375 "/></g></g></g><g fill="#007bff" fill-opacity="1"><g transform="translate(196.468563, 111.709637)"><g><path d="M -1.09375 -0.984375 C -1.09375 -1.285156 -0.984375 -1.535156 -0.765625 -1.734375 C -0.554688 -1.929688 -0.300781 -2.03125 0 -2.03125 C 0.5 -2.03125 0.878906 -2.132812 1.140625 -2.34375 C 1.398438 -2.550781 1.59375 -2.789062 1.71875 -3.0625 C 1.84375 -3.332031 1.914062 -3.609375 1.9375 -3.890625 C 1.96875 -4.179688 1.984375 -4.421875 1.984375 -4.609375 L 1.984375 -6.8125 L 3.890625 -8.046875 L 3.890625 -4.140625 C 3.890625 -3.578125 4.03125 -3.082031 4.3125 -2.65625 C 4.601562 -2.238281 5.082031 -2.03125 5.75 -2.03125 C 6.40625 -2.03125 6.867188 -2.242188 7.140625 -2.671875 C 7.410156 -3.097656 7.546875 -3.742188 7.546875 -4.609375 L 7.546875 -6.8125 L 9.515625 -8.046875 L 9.515625 -3.90625 C 9.515625 -3.382812 9.65625 -2.941406 9.9375 -2.578125 C 10.226562 -2.210938 10.679688 -2.03125 11.296875 -2.03125 C 11.660156 -2.03125 11.957031 -2.070312 12.1875 -2.15625 C 12.414062 -2.25 12.597656 -2.414062 12.734375 -2.65625 C 12.878906 -2.894531 12.972656 -3.207031 13.015625 -3.59375 C 13.066406 -3.988281 13.09375 -4.484375 13.09375 -5.078125 L 13.09375 -7.546875 L 15.0625 -8.796875 L 15.0625 -4.28125 C 15.0625 -3.96875 15.085938 -3.675781 15.140625 -3.40625 C 15.203125 -3.132812 15.296875 -2.894531 15.421875 -2.6875 C 15.554688 -2.476562 15.742188 -2.316406 15.984375 -2.203125 C 16.222656 -2.085938 16.515625 -2.03125 16.859375 -2.03125 L 16.859375 0 C 16.617188 0 16.363281 -0.0234375 16.09375 -0.078125 C 15.832031 -0.128906 15.578125 -0.203125 15.328125 -0.296875 C 15.078125 -0.398438 14.84375 -0.535156 14.625 -0.703125 C 14.414062 -0.878906 14.253906 -1.09375 14.140625 -1.34375 C 13.804688 -0.90625 13.40625 -0.570312 12.9375 -0.34375 C 12.46875 -0.113281 11.894531 0 11.21875 0 C 10.707031 0 10.203125 -0.0976562 9.703125 -0.296875 C 9.210938 -0.492188 8.851562 -0.84375 8.625 -1.34375 C 8.300781 -0.90625 7.910156 -0.570312 7.453125 -0.34375 C 7.003906 -0.113281 6.4375 0 5.75 0 C 5.5 0 5.238281 -0.0234375 4.96875 -0.078125 C 4.707031 -0.128906 4.453125 -0.203125 4.203125 -0.296875 C 3.960938 -0.398438 3.734375 -0.535156 3.515625 -0.703125 C 3.296875 -0.878906 3.128906 -1.09375 3.015625 -1.34375 C 2.390625 -0.445312 1.382812 0 0 0 C -0.28125 0 -0.53125 -0.0820312 -0.75 -0.25 C -0.976562 -0.425781 -1.09375 -0.671875 -1.09375 -0.984375 Z M -1.09375 -0.984375 "/></g></g></g><g fill="#007bff" fill-opacity="1"><g transform="translate(213.325601, 111.709637)"><g><path d="M -1.09375 -0.984375 C -1.09375 -1.285156 -0.984375 -1.535156 -0.765625 -1.734375 C -0.554688 -1.929688 -0.300781 -2.03125 0 -2.03125 L 4.953125 -2.03125 L 4.953125 0 L 0 0 C -0.28125 0 -0.53125 -0.0820312 -0.75 -0.25 C -0.976562 -0.425781 -1.09375 -0.671875 -1.09375 -0.984375 Z M -1.09375 -0.984375 "/></g></g></g><g fill="#007bff" fill-opacity="1"><g transform="translate(218.276282, 111.709637)"><g><path d="M -1.09375 -0.984375 C -1.09375 -1.285156 -0.984375 -1.535156 -0.765625 -1.734375 C -0.554688 -1.929688 -0.300781 -2.03125 0 -2.03125 L 4.953125 -2.03125 L 4.953125 0 L 0 0 C -0.28125 0 -0.53125 -0.0820312 -0.75 -0.25 C -0.976562 -0.425781 -1.09375 -0.671875 -1.09375 -0.984375 Z M -1.09375 -0.984375 "/></g></g></g><g fill="#007bff" fill-opacity="1"><g transform="translate(223.226962, 111.709637)"><g><path d="M -1.09375 -0.984375 C -1.09375 -1.285156 -0.984375 -1.535156 -0.765625 -1.734375 C -0.554688 -1.929688 -0.300781 -2.03125 0 -2.03125 L 4.953125 -2.03125 L 4.953125 0 L 0 0 C -0.28125 0 -0.53125 -0.0820312 -0.75 -0.25 C -0.976562 -0.425781 -1.09375 -0.671875 -1.09375 -0.984375 Z M -1.09375 -0.984375 "/></g></g></g><g fill="#007bff" fill-opacity="1"><g transform="translate(228.177642, 111.709637)"><g><path d="M -1.09375 -0.984375 C -1.09375 -1.285156 -0.984375 -1.535156 -0.765625 -1.734375 C -0.554688 -1.929688 -0.300781 -2.03125 0 -2.03125 L 4.953125 -2.03125 L 4.953125 0 L 0 0 C -0.28125 0 -0.53125 -0.0820312 -0.75 -0.25 C -0.976562 -0.425781 -1.09375 -0.671875 -1.09375 -0.984375 Z M -1.09375 -0.984375 "/></g></g></g><g fill="#007bff" fill-opacity="1"><g transform="translate(233.128323, 111.709637)"><g><path d="M -1.09375 -0.984375 C -1.09375 -1.285156 -0.984375 -1.535156 -0.765625 -1.734375 C -0.554688 -1.929688 -0.300781 -2.03125 0 -2.03125 L 4.953125 -2.03125 L 4.953125 0 L 0 0 C -0.28125 0 -0.53125 -0.0820312 -0.75 -0.25 C -0.976562 -0.425781 -1.09375 -0.671875 -1.09375 -0.984375 Z M -1.09375 -0.984375 "/></g></g></g><g fill="#007bff" fill-opacity="1"><g transform="translate(238.079003, 111.709637)"><g><path d="M -1.09375 -0.984375 C -1.09375 -1.285156 -0.984375 -1.535156 -0.765625 -1.734375 C -0.554688 -1.929688 -0.300781 -2.03125 0 -2.03125 L 4.953125 -2.03125 L 4.953125 0 L 0 0 C -0.28125 0 -0.53125 -0.0820312 -0.75 -0.25 C -0.976562 -0.425781 -1.09375 -0.671875 -1.09375 -0.984375 Z M -1.09375 -0.984375 "/></g></g></g><g fill="#007bff" fill-opacity="1"><g transform="translate(243.029684, 111.709637)"><g><path d="M -1.09375 -0.984375 C -1.09375 -1.285156 -0.984375 -1.535156 -0.765625 -1.734375 C -0.554688 -1.929688 -0.300781 -2.03125 0 -2.03125 C 0.707031 -2.03125 1.210938 -2.234375 1.515625 -2.640625 C 1.828125 -3.054688 1.984375 -3.710938 1.984375 -4.609375 L 1.984375 -6.8125 L 3.96875 -8.046875 C 3.945312 -7.335938 3.9375 -6.703125 3.9375 -6.140625 L 3.9375 -3.90625 C 3.9375 -3.394531 4.085938 -2.96875 4.390625 -2.625 C 4.703125 -2.289062 5.15625 -2.09375 5.75 -2.03125 L 5.75 0 C 5.5 0 5.238281 -0.0234375 4.96875 -0.078125 C 4.707031 -0.128906 4.453125 -0.203125 4.203125 -0.296875 C 3.960938 -0.398438 3.734375 -0.535156 3.515625 -0.703125 C 3.296875 -0.878906 3.128906 -1.09375 3.015625 -1.34375 C 2.390625 -0.445312 1.382812 0 0 0 C -0.28125 0 -0.53125 -0.0820312 -0.75 -0.25 C -0.976562 -0.425781 -1.09375 -0.671875 -1.09375 -0.984375 Z M 0.765625 -10.203125 C 0.765625 -10.460938 0.851562 -10.679688 1.03125 -10.859375 C 1.207031 -11.046875 1.425781 -11.140625 1.6875 -11.140625 C 1.945312 -11.140625 2.164062 -11.046875 2.34375 -10.859375 C 2.53125 -10.679688 2.625 -10.460938 2.625 -10.203125 C 2.625 -9.929688 2.53125 -9.707031 2.34375 -9.53125 C 2.164062 -9.363281 1.945312 -9.28125 1.6875 -9.28125 C 1.425781 -9.28125 1.207031 -9.363281 1.03125 -9.53125 C 0.851562 -9.707031 0.765625 -9.929688 0.765625 -10.203125 Z M 3.125 -10.203125 C 3.125 -10.460938 3.207031 -10.679688 3.375 -10.859375 C 3.550781 -11.046875 3.769531 -11.140625 4.03125 -11.140625 C 4.300781 -11.140625 4.523438 -11.046875 4.703125 -10.859375 C 4.890625 -10.679688 4.984375 -10.460938 4.984375 -10.203125 C 4.984375 -9.929688 4.890625 -9.707031 4.703125 -9.53125 C 4.523438 -9.363281 4.300781 -9.28125 4.03125 -9.28125 C 3.769531 -9.28125 3.550781 -9.363281 3.375 -9.53125 C 3.207031 -9.707031 3.125 -9.929688 3.125 -10.203125 Z M 3.125 -10.203125 "/></g></g></g><g fill="#007bff" fill-opacity="1"><g transform="translate(248.772472, 111.709637)"><g><path d="M -1.09375 -0.984375 C -1.09375 -1.285156 -0.984375 -1.535156 -0.765625 -1.734375 C -0.554688 -1.929688 -0.300781 -2.03125 0 -2.03125 L 4.953125 -2.03125 L 4.953125 0 L 0 0 C -0.28125 0 -0.53125 -0.0820312 -0.75 -0.25 C -0.976562 -0.425781 -1.09375 -0.671875 -1.09375 -0.984375 Z M -1.09375 -0.984375 "/></g></g></g><g fill="#007bff" fill-opacity="1"><g transform="translate(253.723152, 111.709637)"><g><path d="M -1.09375 -0.984375 C -1.09375 -1.285156 -0.984375 -1.535156 -0.765625 -1.734375 C -0.554688 -1.929688 -0.300781 -2.03125 0 -2.03125 L 4.953125 -2.03125 L 4.953125 0 L 0 0 C -0.28125 0 -0.53125 -0.0820312 -0.75 -0.25 C -0.976562 -0.425781 -1.09375 -0.671875 -1.09375 -0.984375 Z M -1.09375 -0.984375 "/></g></g></g><g fill="#007bff" fill-opacity="1"><g transform="translate(258.673832, 111.709637)"><g><path d="M -1.09375 -0.984375 C -1.09375 -1.285156 -0.984375 -1.535156 -0.765625 -1.734375 C -0.554688 -1.929688 -0.300781 -2.03125 0 -2.03125 L 4.953125 -2.03125 L 4.953125 0 L 0 0 C -0.28125 0 -0.53125 -0.0820312 -0.75 -0.25 C -0.976562 -0.425781 -1.09375 -0.671875 -1.09375 -0.984375 Z M -1.09375 -0.984375 "/></g></g></g><g fill="#007bff" fill-opacity="1"><g transform="translate(263.624513, 111.709637)"><g><path d="M -1.09375 -0.984375 C -1.09375 -1.285156 -0.984375 -1.535156 -0.765625 -1.734375 C -0.554688 -1.929688 -0.300781 -2.03125 0 -2.03125 L 4.953125 -2.03125 L 4.953125 0 L 0 0 C -0.28125 0 -0.53125 -0.0820312 -0.75 -0.25 C -0.976562 -0.425781 -1.09375 -0.671875 -1.09375 -0.984375 Z M -1.09375 -0.984375 "/></g></g></g><g fill="#007bff" fill-opacity="1"><g transform="translate(268.575193, 111.709637)"><g><path d="M -1.09375 -0.984375 C -1.09375 -1.285156 -0.984375 -1.535156 -0.765625 -1.734375 C -0.554688 -1.929688 -0.300781 -2.03125 0 -2.03125 L 4.953125 -2.03125 L 4.953125 0 L 0 0 C -0.28125 0 -0.53125 -0.0820312 -0.75 -0.25 C -0.976562 -0.425781 -1.09375 -0.671875 -1.09375 -0.984375 Z M -1.09375 -0.984375 "/></g></g></g><g fill="#007bff" fill-opacity="1"><g transform="translate(273.525874, 111.709637)"><g><path d="M -1.09375 -0.984375 C -1.09375 -1.285156 -0.984375 -1.535156 -0.765625 -1.734375 C -0.554688 -1.929688 -0.300781 -2.03125 0 -2.03125 L 4.953125 -2.03125 L 4.953125 0 L 0 0 C -0.28125 0 -0.53125 -0.0820312 -0.75 -0.25 C -0.976562 -0.425781 -1.09375 -0.671875 -1.09375 -0.984375 Z M -1.09375 -0.984375 "/></g></g></g><g fill="#007bff" fill-opacity="1"><g transform="translate(278.476554, 111.709637)"><g><path d="M 3.890625 -17.453125 L 3.890625 -4.28125 C 3.890625 -2.832031 3.570312 -1.753906 2.9375 -1.046875 C 2.3125 -0.347656 1.332031 0 0 0 C -0.28125 0 -0.53125 -0.0820312 -0.75 -0.25 C -0.976562 -0.425781 -1.09375 -0.671875 -1.09375 -0.984375 C -1.09375 -1.285156 -0.984375 -1.535156 -0.765625 -1.734375 C -0.554688 -1.929688 -0.300781 -2.03125 0 -2.03125 C 0.457031 -2.03125 0.816406 -2.097656 1.078125 -2.234375 C 1.347656 -2.378906 1.546875 -2.582031 1.671875 -2.84375 C 1.804688 -3.113281 1.890625 -3.429688 1.921875 -3.796875 C 1.960938 -4.171875 1.984375 -4.597656 1.984375 -5.078125 L 1.984375 -16.21875 Z M 3.890625 -17.453125 "/></g></g></g><g fill="#007bff" fill-opacity="1"><g transform="translate(283.971797, 111.709637)"><g><path d="M 3.5625 0 L 1.609375 0 L 1.609375 -16.21875 L 3.5625 -17.453125 Z M 3.5625 0 "/></g></g></g><g fill="#007bff" fill-opacity="1"><g transform="translate(289.145242, 111.709637)"><g/></g></g><g fill="#007bff" fill-opacity="1"><g transform="translate(291.620582, 111.709637)"><g><path d="M 14.890625 0 C 14.785156 0.820312 14.535156 1.554688 14.140625 2.203125 C 13.742188 2.847656 13.238281 3.398438 12.625 3.859375 C 12.019531 4.328125 11.332031 4.679688 10.5625 4.921875 C 9.789062 5.160156 8.992188 5.28125 8.171875 5.28125 C 7.210938 5.28125 6.332031 5.125 5.53125 4.8125 C 4.726562 4.507812 4.035156 4.082031 3.453125 3.53125 C 2.867188 2.988281 2.414062 2.335938 2.09375 1.578125 C 1.769531 0.828125 1.609375 -0.0078125 1.609375 -0.9375 C 1.609375 -1.925781 1.832031 -2.828125 2.28125 -3.640625 C 2.738281 -4.460938 3.347656 -5.164062 4.109375 -5.75 L 5.203125 -4.53125 C 4.210938 -3.65625 3.71875 -2.5 3.71875 -1.0625 C 3.75 -0.519531 3.875 0.00390625 4.09375 0.515625 C 4.320312 1.023438 4.625 1.484375 5 1.890625 C 5.382812 2.296875 5.84375 2.625 6.375 2.875 C 6.914062 3.125 7.515625 3.25 8.171875 3.25 C 8.796875 3.25 9.394531 3.15625 9.96875 2.96875 C 10.550781 2.789062 11.066406 2.523438 11.515625 2.171875 C 11.960938 1.828125 12.316406 1.410156 12.578125 0.921875 C 12.847656 0.441406 12.984375 -0.101562 12.984375 -0.71875 L 12.984375 -6.8125 L 14.9375 -8.046875 L 14.9375 -2.03125 L 16.546875 -2.03125 L 16.546875 0 Z M 7.34375 -8.96875 C 7.34375 -9.226562 7.429688 -9.445312 7.609375 -9.625 C 7.785156 -9.8125 8.003906 -9.90625 8.265625 -9.90625 C 8.523438 -9.90625 8.742188 -9.8125 8.921875 -9.625 C 9.109375 -9.445312 9.203125 -9.226562 9.203125 -8.96875 C 9.203125 -8.695312 9.109375 -8.472656 8.921875 -8.296875 C 8.742188 -8.128906 8.523438 -8.046875 8.265625 -8.046875 C 8.003906 -8.046875 7.785156 -8.128906 7.609375 -8.296875 C 7.429688 -8.472656 7.34375 -8.695312 7.34375 -8.96875 Z M 7.34375 -8.96875 "/></g></g></g><g fill="#007bff" fill-opacity="1"><g transform="translate(308.155821, 111.709637)"><g><path d="M -1.09375 -0.984375 C -1.09375 -1.285156 -0.984375 -1.535156 -0.765625 -1.734375 C -0.554688 -1.929688 -0.300781 -2.03125 0 -2.03125 L 4.953125 -2.03125 L 4.953125 0 L 0 0 C -0.28125 0 -0.53125 -0.0820312 -0.75 -0.25 C -0.976562 -0.425781 -1.09375 -0.671875 -1.09375 -0.984375 Z M -1.09375 -0.984375 "/></g></g></g><g fill="#007bff" fill-opacity="1"><g transform="translate(313.106502, 111.709637)"><g><path d="M -1.09375 -0.984375 C -1.09375 -1.285156 -0.984375 -1.535156 -0.765625 -1.734375 C -0.554688 -1.929688 -0.300781 -2.03125 0 -2.03125 L 4.953125 -2.03125 L 4.953125 0 L 0 0 C -0.28125 0 -0.53125 -0.0820312 -0.75 -0.25 C -0.976562 -0.425781 -1.09375 -0.671875 -1.09375 -0.984375 Z M -1.09375 -0.984375 "/></g></g></g><g fill="#007bff" fill-opacity="1"><g transform="translate(318.057182, 111.709637)"><g><path d="M -1.09375 -0.984375 C -1.09375 -1.285156 -0.984375 -1.535156 -0.765625 -1.734375 C -0.554688 -1.929688 -0.300781 -2.03125 0 -2.03125 L 4.953125 -2.03125 L 4.953125 0 L 0 0 C -0.28125 0 -0.53125 -0.0820312 -0.75 -0.25 C -0.976562 -0.425781 -1.09375 -0.671875 -1.09375 -0.984375 Z M -1.09375 -0.984375 "/></g></g></g><g fill="#007bff" fill-opacity="1"><g transform="translate(323.007863, 111.709637)"><g><path d="M -1.09375 -0.984375 C -1.09375 -1.285156 -0.984375 -1.535156 -0.765625 -1.734375 C -0.554688 -1.929688 -0.300781 -2.03125 0 -2.03125 L 4.953125 -2.03125 L 4.953125 0 L 0 0 C -0.28125 0 -0.53125 -0.0820312 -0.75 -0.25 C -0.976562 -0.425781 -1.09375 -0.671875 -1.09375 -0.984375 Z M -1.09375 -0.984375 "/></g></g></g><g fill="#007bff" fill-opacity="1"><g transform="translate(327.958543, 111.709637)"><g><path d="M -1.09375 -0.984375 C -1.09375 -1.285156 -0.984375 -1.535156 -0.765625 -1.734375 C -0.554688 -1.929688 -0.300781 -2.03125 0 -2.03125 L 4.953125 -2.03125 L 4.953125 0 L 0 0 C -0.28125 0 -0.53125 -0.0820312 -0.75 -0.25 C -0.976562 -0.425781 -1.09375 -0.671875 -1.09375 -0.984375 Z M -1.09375 -0.984375 "/></g></g></g><g fill="#007bff" fill-opacity="1"><g transform="translate(332.909223, 111.709637)"><g><path d="M -1.09375 -0.984375 C -1.09375 -1.285156 -0.984375 -1.535156 -0.765625 -1.734375 C -0.554688 -1.929688 -0.300781 -2.03125 0 -2.03125 L 2.078125 -2.03125 L 2.25 -2.171875 C 1.9375 -2.785156 1.78125 -3.503906 1.78125 -4.328125 C 1.78125 -4.921875 1.878906 -5.484375 2.078125 -6.015625 C 2.273438 -6.554688 2.554688 -7.035156 2.921875 -7.453125 C 3.285156 -7.867188 3.71875 -8.195312 4.21875 -8.4375 C 4.726562 -8.675781 5.285156 -8.796875 5.890625 -8.796875 C 6.335938 -8.796875 6.765625 -8.71875 7.171875 -8.5625 C 7.578125 -8.40625 7.941406 -8.1875 8.265625 -7.90625 C 8.597656 -7.632812 8.882812 -7.316406 9.125 -6.953125 C 9.363281 -6.597656 9.539062 -6.203125 9.65625 -5.765625 L 7.53125 -5.765625 C 7.34375 -6.066406 7.109375 -6.304688 6.828125 -6.484375 C 6.554688 -6.671875 6.242188 -6.765625 5.890625 -6.765625 C 5.234375 -6.765625 4.707031 -6.519531 4.3125 -6.03125 C 3.925781 -5.539062 3.734375 -4.972656 3.734375 -4.328125 C 3.734375 -3.640625 3.957031 -3.082031 4.40625 -2.65625 C 4.851562 -2.238281 5.484375 -2.03125 6.296875 -2.03125 L 9.875 -2.03125 L 8.640625 0 L 0 0 C -0.28125 0 -0.53125 -0.0820312 -0.75 -0.25 C -0.976562 -0.425781 -1.09375 -0.671875 -1.09375 -0.984375 Z M -1.09375 -0.984375 "/></g></g></g></svg>